<svg xmlns="http://www.w3.org/2000/svg"  viewBox="0 0 30 30" width="30px" height="30px"><path fill="#f5ce85" d="M15,28.5C7.556,28.5,1.5,22.444,1.5,15S7.556,1.5,15,1.5S28.5,7.556,28.5,15S22.444,28.5,15,28.5z"/><path fill="#967a44" d="M15,2c7.168,0,13,5.832,13,13s-5.832,13-13,13S2,22.168,2,15S7.832,2,15,2 M15,1 C7.268,1,1,7.268,1,15s6.268,14,14,14s14-6.268,14-14S22.732,1,15,1L15,1z"/><path fill="#967a44" d="M12 6H14V9.559000000000001H12zM16 6H18V9.559000000000001H16zM12 20.441H14V24H12zM16 20.441H18V24H16z"/><path fill="#967a44" d="M10,8h5.249c1.039,0,1.814,0.046,2.325,0.138c0.51,0.093,0.967,0.285,1.371,0.578 c0.403,0.293,0.739,0.683,1.008,1.17c0.269,0.487,0.403,1.033,0.403,1.638c0,0.656-0.166,1.257-0.497,1.805 c-0.331,0.548-0.781,0.959-1.348,1.232c0.8,0.248,1.415,0.672,1.845,1.27C20.785,16.429,21,17.133,21,17.941 c0,0.637-0.139,1.256-0.417,1.858s-0.657,1.082-1.137,1.442c-0.481,0.36-1.073,0.581-1.778,0.664 C17.226,21.956,16.16,21.987,14.47,22H10V8z M12.651,10.33v3.237h1.738c1.033,0,1.675-0.016,1.926-0.048 c0.454-0.057,0.811-0.224,1.071-0.501c0.26-0.277,0.389-0.642,0.389-1.094c0-0.433-0.112-0.785-0.336-1.055 c-0.224-0.27-0.557-0.434-0.999-0.492c-0.263-0.032-1.018-0.048-2.266-0.048H12.651z M12.651,15.898v3.743h2.454 c0.956,0,1.562-0.029,1.818-0.086c0.394-0.076,0.715-0.262,0.963-0.559c0.248-0.296,0.372-0.692,0.372-1.189 c0-0.42-0.095-0.777-0.286-1.07c-0.191-0.293-0.467-0.506-0.829-0.64c-0.362-0.134-1.146-0.2-2.352-0.2H12.651z"/></svg>